<?xml version="1.0" encoding="utf-8"?>
<!-- Generator: Adobe Illustrator 19.2.1, SVG Export Plug-In . SVG Version: 6.00 Build 0)  -->
<svg version="1.1" id="Layer_1" xmlns="http://www.w3.org/2000/svg" xmlns:xlink="http://www.w3.org/1999/xlink" x="20px" y="20px"
	 viewBox="0 0 411.4 384.5" style="enable-background:new 0 0 411.4 384.5;" xml:space="preserve">
<style type="text/css">
	.st0{fill:#91B2AE;}
	.st1{fill:#53473F;}
	.st2{fill:#F5F2E8;}
	.st3{fill:#FFFFFF;}
</style>
<g>
	<rect class="st0" width="411.4" height="384.4"/>
	<path class="st1" d="M395.2,369.5h-379V15h379V369.5z M19.8,365.8h371.8V18.7H19.8V365.8z"/>
	<path class="st2" d="M180.6,59c0-4.9,0-5.6-0.8-5.7V53c0.7,0,2.3,0,4.1,0c1.6,0,3.3,0,4.5,0c0,0.9,0,1.9-0.1,3.2H188
		c-0.1-0.7-0.8-0.9-2.1-0.9h-2.5v3.8h2.1c1.4,0,1.7,0,1.9-0.5h0.3c0,0.6,0,1.1,0,1.6c0,0.6,0,1.1,0,1.7h-0.3
		c-0.1-0.5-0.5-0.5-1.8-0.5h-2.2v3.5c0,0.4,0,0.5,0.4,0.5c1,0,2,0,2.9,0s1.5-0.2,1.6-0.8h0.3c0,1.4-0.1,2.2-0.1,3.2
		c-1.3,0-2.9,0-4.3,0c-2.1,0-3.9,0-4.5,0v-0.2c0.8-0.1,0.8-0.8,0.8-6.1V59H180.6z"/>
	<path class="st2" d="M209,63.9c0,2.4-1.9,4.2-4.9,4.2c-1.2,0-2.4-0.2-3-0.6c0-1,0.1-1.8,0.1-3.3h0.3c0.1,0.5,0.4,0.9,0.8,1.1
		c0.4,0.2,1.1,0.4,1.7,0.4c1.2,0,2.1-0.6,2.1-1.7c0-0.7-0.4-1.2-1.1-1.8c-0.5-0.4-1.1-0.8-1.6-1.3c-1.4-1-2.1-2.2-2.1-3.8
		c0-2.3,1.7-4.2,4.8-4.2c0.8,0,1.8,0.1,2.3,0.3c-0.1,1.1-0.1,2-0.1,3.3H208c-0.1-0.4-0.3-0.7-0.6-0.9c-0.3-0.2-0.7-0.3-1.2-0.3
		c-1.2,0-2,0.7-2,1.6c0,0.6,0.3,1.1,0.8,1.5s1.1,0.9,1.9,1.5C208.1,61.1,209,62.2,209,63.9L209,63.9z"/>
	<path class="st2" d="M225.1,55.4h-2.6c-1,0-1.4,0.2-1.6,1h-0.3c0-1.2,0-2.4,0-3.3c1.5,0,3.3,0,4.8,0h2.1c1.6,0,3.4,0,4.8,0v3.3H232
		c-0.2-0.8-0.6-1-1.5-1H228v6.2c0,5.3,0,6,0.9,6.1V68c-0.6,0-1.5,0-2.3,0c-0.9,0-1.8,0-2.3,0v-0.4c0.9-0.1,0.9-0.7,0.9-6.1
		L225.1,55.4L225.1,55.4z"/>
	<path class="st2" d="M174.4,84.5c0,5.2,0,5.8,1.2,5.9v0.3c-0.7,0-1.8,0-2.6,0s-2.1,0-2.8,0v-0.3c1.3-0.1,1.3-0.7,1.3-5.9v-4.9
		c0-1,0-1-0.3-1c-0.4,0.1-1.7,0.5-2.4,0.8l-0.4-1c1.4-0.5,3.8-1.8,4.9-2.4h1.1c0,1.4,0,2.1,0,5.2V84.5z"/>
	<path class="st2" d="M198.2,80.9c0,1-0.3,2.1-0.7,3.1c-0.5,1-1,2-2.2,3.6c-0.9,1.2-1.8,2.3-2.5,3.2h-3.3c1.2-1.3,2.3-2.5,3.3-3.8
		c0.5-0.6,0.9-1.2,1.4-1.9l0,0c-0.5,0.4-1.3,0.5-1.9,0.5c-2.6,0-4.6-1.9-4.6-4.6c0-1.4,0.5-2.6,1.5-3.6c1.1-1.1,2.5-1.6,3.9-1.6
		C196.1,75.7,198.2,77.7,198.2,80.9L198.2,80.9z M192.9,78.1c-1.5,0-2.5,1.3-2.5,2.6c0,1.5,1,2.6,2.5,2.6c0.8,0,1.4-0.3,1.9-0.8
		c0.4-0.4,0.7-1,0.7-1.9C195.4,79.3,194.4,78.1,192.9,78.1L192.9,78.1z"/>
	<path class="st2" d="M220.8,85.6v2.1h-0.1h-2.2c0,2.1,0,2.7,0.8,2.7v0.3c-0.6,0-1.8,0-2.3,0c-0.6,0-1.8,0-2.4,0v-0.3
		c1-0.3,1-0.4,1-2.7H209v-1.6c1.5-2.1,4.8-6.7,7.5-10.3h2c0,3.1,0,9.7,0,9.7L220.8,85.6L220.8,85.6z M215.8,85.6
		c0-0.3,0-3.9,0.1-5.3l0,0c-0.8,1.3-2.9,4.2-3.6,5.2l0,0L215.8,85.6L215.8,85.6z"/>
	<path class="st2" d="M234.4,78.3c-1.1,0-1.8,0.2-2,0.9h-0.3c0-0.7,0-2.4-0.1-3.4c1.1,0,3.3,0,5,0h5c0,0.1,0,0.8,0,0.9
		c-2.5,5.4-4.6,10-6.5,14h-3c2.1-4.4,4-8.2,6-12.4H234.4z"/>
	<path class="st2" d="M144.1,292.9h0.4c4.5,7.9,5.1,8.9,5.7,10.1l0,0c0.6-1.2,1.1-2.2,5.8-10.1h0.4l1.1,8.6c0.7,5.3,0.8,6,1.5,6.1
		v0.3c-0.4,0-1.2,0-2.1,0c-0.9,0-1.8,0-2.3,0v-0.3c0.8-0.1,0.7-0.8,0.4-3.9c-0.2-1.7-0.3-2.8-0.4-3.9l0,0c-0.6,1.3-1.1,2.1-1.8,3.5
		c-0.5,0.9-1.4,2.4-2.5,4.2h-0.4c-1.2-1.9-2-3.4-2.5-4.3c-0.7-1.3-1.2-2.3-1.7-3.5l0,0c-0.1,1.1-0.2,2.2-0.4,3.9
		c-0.3,3-0.4,3.8,0.4,3.9v0.3c-0.6,0-1.5,0-2.3,0s-1.6,0-2,0v-0.3c0.7-0.1,0.8-0.7,1.6-6.1L144.1,292.9z"/>
	<path class="st2" d="M174.7,304.8c-0.8,2-1,2.7-0.3,2.7v0.3c-0.7,0-1.5,0-2.2,0c-1,0-1.7,0-2.1,0v-0.3c0.6-0.1,0.9-0.7,3.2-6.1
		l3.7-8.7h0.5l3.7,8.8c2.2,5.3,2.5,6,3.1,6.1v0.3c-0.4,0-1.1,0-2.1,0c-0.8,0-1.7,0-2.5,0v-0.3c0.7-0.1,0.5-0.7-0.3-2.7L174.7,304.8
		L174.7,304.8z M178.6,302.6L178.6,302.6c-1.1-3-1.3-3.7-1.5-4.2l0,0c-0.1,0.5-0.4,1.2-1.5,4.1v0.1L178.6,302.6L178.6,302.6z"/>
	<path class="st2" d="M196.6,298.9c0-4.9,0-5.6-0.9-5.7v-0.3c0.4,0,1.3,0,2.3,0c0.9,0,1.8,0,2.2,0v0.3c-0.8,0.1-0.8,0.7-0.8,5.7v2.4
		v3.8c0,0.3,0.1,0.4,0.4,0.4h2.9c0.5,0,0.8-0.1,1.1-0.2c0.2-0.1,0.4-0.4,0.5-0.7h0.3c0,1.4-0.1,2.2-0.1,3.3c-1.1,0-2.8,0-4.3,0
		c-2.1,0-4,0-4.5,0v-0.3c0.8-0.1,0.8-0.7,0.8-6v-2.7H196.6z"/>
	<path class="st2" d="M220.3,301.5c0,5.3,0,5.9,0.9,6.1v0.3c-0.6,0-1.4,0-2.3,0c-1,0-1.9,0-2.3,0v-0.3c0.9-0.1,0.9-0.7,0.9-6V299
		c0-4.9,0-5.6-0.8-5.7V293c0.4,0,1.3,0,2.2,0s1.7,0,2.3,0v0.3c-0.8,0.1-0.8,0.7-0.8,5.7L220.3,301.5L220.3,301.5z"/>
	<path class="st2" d="M243.6,303.6c0,1.5-0.8,2.7-1.8,3.3c-0.9,0.6-2.2,0.9-4.3,0.9c-0.7,0-1.3,0-2,0c-0.4,0-1,0-1.7,0v-0.3
		c0.8,0,0.8-0.7,0.8-6v-2.6c0-4.9,0-5.6-0.7-5.6V293c0.4,0,1.3,0,1.8,0c0.6,0,1.4-0.1,2.2-0.1c0.9,0,1.8,0.1,2.5,0.3
		c1.1,0.3,2.6,1.4,2.6,3.6c0,1.6-1.1,2.9-2.4,3.2l0,0C242.2,300.4,243.6,301.7,243.6,303.6L243.6,303.6z M240.2,297.1
		c0-1.2-0.8-1.9-2.1-1.9c-0.3,0-0.6,0-0.8,0.1v3.8c0.2,0,0.4,0,0.5,0c0.3,0,0.7,0,1.1-0.2C239.5,298.7,240.2,298.2,240.2,297.1
		L240.2,297.1z M240.7,303.4c0-1-0.7-1.7-1.4-1.9c-0.3-0.1-0.8-0.2-1.2-0.2c-0.2,0-0.5,0-0.7,0v3.7c0,0.3,0,0.3,0.1,0.4
		c0.2,0,0.5,0,0.8,0c0.5,0,1-0.1,1.4-0.3C240.2,304.9,240.7,304.3,240.7,303.4L240.7,303.4z"/>
	<path class="st2" d="M256.6,298.9c0-4.9,0-5.6-0.8-5.7v-0.3c0.5,0,1.3,0,2.3,0c0.9,0,1.7,0,2.3,0v0.3c-0.8,0.1-0.8,0.7-0.8,5.7v2.3
		c0,1.4,0.2,2.3,0.7,3s1.5,1.2,2.6,1.2c1,0,1.9-0.4,2.5-1.2c0.5-0.7,0.8-1.6,0.8-3V299c0-4.9,0-5.6-0.9-5.7V293c0.6,0,1.5,0,2.2,0
		c1,0,1.8,0,2.2,0v0.3c-0.7,0.1-0.7,0.7-0.7,5.7v2.2c0,2.4-0.4,3.7-1.3,4.8c-0.8,1.1-2.5,2.2-4.7,2.2c-2.4,0-4.3-0.9-5.3-2.6
		c-0.7-1.1-1-2.3-1-4.2v-2.5H256.6z"/>
	<path class="st2" d="M187.8,323.2c0-4.6,3.6-7.6,8.7-7.6c0.6,0,1.1,0,1.6,0.1s1,0.1,1.4,0.2c-0.1,1.1-0.1,1.9-0.1,3.5h-0.3
		c-0.2-0.5-0.4-0.8-0.8-0.9c-0.4-0.2-1.1-0.3-1.9-0.3c-3.2,0-5.4,2-5.4,5.1c0,3.2,2.2,5.2,5.2,5.2c0.8,0,1.5-0.1,2.1-0.3
		c0.4-0.2,0.7-0.4,0.9-0.9h0.3c0,1,0,2.5,0.1,3.3c-0.3,0.1-0.9,0.2-1.3,0.3c-0.7,0.1-1.3,0.1-2.1,0.1
		C191.3,330.9,187.8,328,187.8,323.2L187.8,323.2z"/>
	<path class="st2" d="M215.5,327.6c-0.8,2-1.1,2.7-0.3,2.7v0.3c-0.7,0-1.5,0-2.2,0c-1,0-1.7,0-2.1,0v-0.3c0.6,0,0.9-0.7,3.2-6.1
		l3.7-8.7h0.5l3.7,8.8c2.2,5.3,2.5,6,3.1,6v0.3c-0.4,0-1.1,0-2.1,0c-0.8,0-1.7,0-2.5,0v-0.3c0.7,0,0.5-0.7-0.3-2.7H215.5z
		 M219.4,325.4L219.4,325.4c-1.1-3-1.3-3.7-1.5-4.2l0,0c-0.1,0.5-0.4,1.2-1.5,4.1v0.1L219.4,325.4L219.4,325.4z"/>
	<rect x="144.3" y="69.3" class="st1" width="10.9" height="1.7"/>
	<rect x="256.2" y="69.3" class="st1" width="10.9" height="1.7"/>
	<rect x="162" y="321.7" class="st1" width="10.9" height="1.8"/>
	<rect x="237.5" y="321.7" class="st1" width="10.9" height="1.8"/>
	<path class="st3" d="M190.3,228.3c-0.8,0-1.5,0.2-2.2,0.5l-0.3,0.2l-0.1,0.3c-4.6,11.6-16.6,31.1-45.7,31.1
		c-39,0-65.2-28.8-65.2-71.5c0-13.3,2.4-24.9,7.1-34.7c0,0,1.2-2.6,0.3-3.1c-1.2-0.6-2.9,0.6-4.5,2.6c-0.3,0.3-0.5,0.6-0.7,0.8
		c-2.7,3.8-4.8,7.9-6.1,12.4c-1.6,6.8-2.4,14.1-2.4,21.9c0,24.7,8.2,45.9,23.2,59.9l5.2,4.5c-1.4-0.5-3.3-1.3-5.5-2.8
		c-1.5-0.9-2.2-1.5-2.9-2c-0.4-0.3-0.7-0.6-1.2-0.9c-18.4-12.7-28.5-32.3-28.5-55.4c0-14.4,4.1-28,12.1-39.6
		c0.1-0.1,2.2-3.6,6.8-8.1c0.6-0.6,1.3-1.3,2-1.9l0,0l0.7-0.6c9.4-8.3,26.1-18.6,52.1-19.9c0,0,3.5-0.2,4.7-0.2
		c24.9,0,39.9,10.9,44.7,32l0.1,0.3l0.3,0.2c1.5,1.1,4.3,1,5.8-0.4l0.3-0.3v-0.5c-1.7-12.9-2.7-26.1-3-31.3l-0.4-0.9
		c0,0-1-1.3-3.5-0.1c-2.5,1.2-2.1,5.1-2.1,6.5c0,0.7,0.3,3.8,0.5,6.1c0,0-2-3.2-6.7-7.2c-4.3-3.7-14.5-10.3-29.7-11.5
		c-1.2-0.1-2.4-0.1-3.5-0.1c-23.3,0-43.9,6.5-59.6,18.8c-17.7,13.7-27.8,35.1-27.8,58.5c0,25.2,11.1,46.8,31.4,60.7
		c14.8,9.9,32.8,14.8,55,14.8c13.9,0,29.8-3.2,34.9-5.1c2.2-0.8,4.7-1.6,7.4-2.2l0.4-0.1l0.2-0.3c3.4-4.6,8.8-18.9,10.4-29.8
		l0.1-0.4l-0.3-0.3C193,228.7,191.4,228.3,190.3,228.3"/>
	<path class="st3" d="M350.3,263.4c-0.1-0.4-0.3-0.8-0.5-1.1l-0.3-0.3h-1.1c-11.5-0.1-16-0.9-23.6-3.7c-7.7-2.9-16.1-9.7-25.7-23.2
		c-2.8-4-6.5-9.8-10.4-16.1c-3.8-5.9-7.7-12.1-11.4-17.5c-0.2-0.3-0.5-0.6-0.7-1c-0.7-0.9-1.4-1.8-2.2-2.5c0,0-2.3-3.2-6.2-5
		c-2.4-1.1-6-1.5-6.5-1.6c-8.6,0-13.3,0.2-14.3-1c-0.7-0.8-0.6-2.6-0.6-7.1v-51.5c0-6.3,1.9-7.5,13.7-7.4
		c25.9,0.4,35.4,18.7,35.4,34.2c0,6.6-1,12.1-3,16.8c0,0-0.2,0.8,0.7,0.9c1.9,0.3,5.6-2.2,7-6.9c1.1-3.6,1.7-6.7,1.7-10.9
		c0-11.2-3.8-21.6-10.9-28.7l-0.7-0.7c-9-8.7-19.1-10.5-24.8-10.9c-5.6-0.4-11-0.2-16-0.2c-7.2,0.4-9.3,5.9-9.4,10.1
		c-0.2,1.1,0,2.4,0,3.6v51.5c0,5.6,0,8.4,1.9,10.9l0.6,0.9l-0.3,0.4c-1.5,1.7-2.2,4.2-2.2,7.6v27.7c0,11.4,0.3,21.3,2.7,25
		s6.4,7.5,14.7,8.5c4.9,0.6,6.6,0.2,6.6,0.2c0.5-0.4,0.9-1.3,1-2.4c0.1-1.2-0.1-2.3-0.6-3l-0.2-0.3L260,258
		c-12.6-1.7-13-4.3-13-27.3V203c0-4.5,0.4-4.6,10.1-4.6c9.1,0,12.3,2.3,15.5,6.9c3.4,4.9,7.4,11.2,11.2,17.3
		c3.7,5.8,7.5,11.8,10.4,16c14.8,21.1,25.9,27.8,45.8,27.8c3.8,0,7.6-0.4,9.8-1.2C350.1,265,350.4,264.2,350.3,263.4"/>
	<path class="st3" d="M219.6,119.8c-5.2-0.9-9.9-0.3-9.9-0.3c-0.8,0.4-1.3,1.4-1.5,2.6c-0.3,2.3,1.2,3.8,1.2,3.8s4.2-0.1,7.1,0.4
		c8.6,1.6,9.5,3.9,9.5,25.5v39.8h-73.8l-3.5-2.1c-0.2-0.1-0.4-0.3-0.7-0.5c-0.5-0.4-1-0.7-1.4-1.1c-0.4-0.4-0.7-0.9-1.1-1.4
		c-0.2-0.2-0.3-0.4-0.5-0.7l-1-1.6c-0.6-1-1.2-2.1-1.8-3c-1-1.6-1.7-2.9-2.1-3.8l-0.8-1.7l-0.8,1.7c-0.4,0.8-1,1.9-2.1,3.8
		c-0.5,0.9-1.1,1.9-1.7,2.9l-1.2,2c-0.1,0.1-0.2,0.3-0.3,0.5c-0.3,0.5-0.7,1-1.1,1.4c-0.4,0.4-0.8,0.7-1.5,1.1l-2.2,1.4
		c-1,0.6-2.1,1.3-3,1.8c-1.9,1.1-3,1.7-3.8,2.1l-1.7,0.8l1.7,0.8c0.8,0.4,1.9,1,3.8,2.1c0.9,0.5,1.9,1.1,2.8,1.7l2,1.2
		c0.1,0.1,0.3,0.2,0.5,0.3c0.5,0.3,1,0.7,1.4,1.1c0.4,0.5,0.8,0.9,1.1,1.4l1.6,2.5c0.6,1,1.2,1.9,1.7,2.8c1.1,1.9,1.7,3,2.1,3.8
		l0.8,1.7l0.8-1.7c0.4-0.8,1-1.9,2.1-3.8c0.6-1,1.2-2,1.8-3l1-1.6c0.1-0.1,0.3-0.4,0.5-0.7c0.3-0.5,0.7-0.9,1.1-1.4
		c0.5-0.4,0.9-0.8,1.4-1.1l4.2-2.6h73.8v32c0,22.3,0,25.7-13,27.3l-5.6,0.7l-0.2,0.4c-0.7,1.1-0.7,2.5-0.5,3.5
		c0.2,0.8,0.5,1.5,1,1.9l0.6,0.5c0,0,2.7,0,6.1-0.5c3.4-0.5,12.6-2.1,15.9-9.7c0.4-1,0.7-1.4,0.8-2.1c1.5-5.3,1.5-12.6,1.5-21.8v-79
		c0-9.6,0-17.9-2.3-23.4C227.5,122.3,223.3,120.5,219.6,119.8 M145.9,196.2c-1,0.7-1.9,1.4-2.8,2.2l-0.6,0.6
		c-0.8,0.9-1.5,1.8-2.2,2.8l-1,1.1l-0.9-1.4c-0.6-1-1.3-1.8-2.1-2.6l-0.6-0.7c-0.8-0.7-1.7-1.4-2.7-2.1l-1.4-0.9l0.9-0.6l0.9-0.6
		c0.9-0.7,1.8-1.3,2.7-2.2l0.2-0.3c0.7-0.8,1.5-1.7,2.1-2.7l1-1.5l1.1,1.7c0.7,1,1.3,1.8,2.3,2.8l0.3,0.3c0.8,0.7,1.7,1.5,2.8,2.2
		l1.2,1.1L145.9,196.2z"/>
	<path class="st3" d="M299.8,127.1c9.2,9.3,10.9,18.1,11.2,19.8c0.7,2.6,1,5.5,1,8.5c0,8.4-3.1,15.7-9.1,21.7
		c-3.2,3.3-8.3,7.3-14.7,7.9c0,0-2.6,0.1-3.8,3.4c-0.4,1.1-0.6,3-0.5,2.6c-0.7,4.3,1.6,8,1.6,8l0.3,0.7c0.3,0.5,0.5,0.9,0.7,1.2
		c10.7,17.3,20.4,32.6,30.4,44.6c3.2,3.6,7,6.7,11.7,8.3c0,0,2.1,0.8,3.7,0.2c1.1-0.4-0.5-1.9-0.5-1.9c-13.5-12.7-25-30.7-39.8-54.6
		c-1.9-3-1.6-4.1-1.3-4.8l0.3-0.3c6.4-2.6,27.4-13,27.4-36.9c0-17-9.3-25.9-17.2-30.4c0,0-1.5-0.9-2.3,0.1
		C298.3,125.9,299.8,127.1,299.8,127.1"/>
</g>
</svg>
